#N canvas -8 10 1785 1019 36;
#N canvas 0 0 450 300 (subpatch) 0;
#X array array1 4 float 1;
#A 0 64 59 55 59;
#X coords 0 65 4 50 200 140 1;
#X restore 18 -78 graph;
#X floatatom 176 578 5 0 0 0 - - -;
#X obj 312 760 tabread array1;
#X obj 1050 78 tgl 15 0 empty empty empty 17 7 0 10 -262144 -1 -1 0
1;
#X obj 312 1039 mtof;
#X msg -682 873 \; array1 0 64 59 55 59;
#X floatatom 400 416 7 0 0 0 - - -;
#X obj 114 656 moses 1;
#X obj 110 812 f;
#X obj 195 780 + 1;
#X obj 112 767 bng 15 250 50 0 empty empty empty 17 7 0 10 -262144
-1 -1;
#X floatatom -327 673 5 0 0 0 - - -;
#X obj -682 850 bng 15 250 50 0 empty empty empty 17 7 0 10 -262144
-1 -1;
#X text -664 833 first two octaves;
#X obj -679 1420 bng 15 250 50 0 empty empty empty 17 7 0 10 -262144
-1 -1;
#X text -637 1401 second two octaves;
#X msg -679 1443 \; array1 0 62 59 55 59;
#X floatatom -478 1045 5 0 0 0 - - -;
#X floatatom -235 1561 5 0 0 0 - - -;
#X obj -683 1945 bng 15 250 50 0 empty empty empty 17 7 0 10 -262144
-1 -1;
#X text -664 1926 third two octaves;
#X floatatom -141 2073 5 0 0 0 - - -;
#X obj -676 2493 bng 15 250 50 0 empty empty empty 17 7 0 10 -262144
-1 -1;
#X text -658 2470 fourth two octaves;
#X obj 204 844 % 8;
#X msg -676 2515 \; array1 0 62 57 54 57;
#X msg -683 1967 \; array1 0 62 59 54 59;
#X msg 241 -117 \; array1 bounds 0 65 4 50;
#X text 1067 62 START THE MADNESS;
#X text 245 -159 Array setup;
#X obj -185 1294 t f f f f;
#X obj 312 947 expr $f1 + $f2;
#X floatatom 327 879 5 0 0 0 - - -;
#X msg 318 815 0;
#X msg 402 816 -1;
#N canvas 0 0 450 300 (subpatch) 0;
#X array array2 10 float 1;
#A 0 79 78 79 83 84 83 83 0 81 79;
#X coords 0 100 9 0 200 140 1;
#X restore -215 -79 graph;
#X msg 241 -3 \; array1 resize 4;
#X text -714 627 Background Melody;
#X text 1457 783 Verse 1 & 2;
#X obj 808 1278 mtof;
#X floatatom 814 884 5 0 0 0 - - -;
#X msg 805 820 0;
#X msg 889 821 -1;
#X obj 799 765 tabread array2;
#X floatatom 899 688 5 0 0 0 - - -;
#X msg -750 42 \; array2 resize 10;
#X msg -766 -75 \; array2 bounds 0 100 9 0;
#X obj 1438 442 moses 1;
#X obj 1434 598 f;
#X obj 1512 578 + 1;
#X obj 1436 553 bng 15 250 50 0 empty empty empty 17 7 0 10 -262144
-1 -1;
#X obj 1813 581 bng 15 250 50 0 empty empty empty 17 7 0 10 -262144
-1 -1;
#X text 1831 564 first two octaves;
#X obj 1813 514 spigot;
#X floatatom 1884 462 5 0 0 0 - - -;
#X floatatom 1429 723 5 0 0 0 - - -;
#X floatatom 1763 775 5 0 0 0 - - -;
#X floatatom 1766 945 5 0 0 0 - - -;
#X obj 1652 1096 bng 15 250 50 0 empty empty empty 17 7 0 10 -262144
-1 -1;
#X text 1694 1077 second two octaves;
#X obj 1659 840 spigot;
#X obj 1659 1016 spigot;
#X obj 1514 641 % 4;
#X floatatom 1760 1282 5 0 0 0 - - -;
#X floatatom 1763 1452 5 0 0 0 - - -;
#X obj 1649 1603 bng 15 250 50 0 empty empty empty 17 7 0 10 -262144
-1 -1;
#X obj 1656 1347 spigot;
#X obj 1656 1523 spigot;
#X text 1691 1584 third two octaves;
#X floatatom 1748 1806 5 0 0 0 - - -;
#X floatatom 1751 1976 5 0 0 0 - - -;
#X obj 1637 2127 bng 15 250 50 0 empty empty empty 17 7 0 10 -262144
-1 -1;
#X obj 1644 1871 spigot;
#X obj 1644 2047 spigot;
#X msg 629 67 0;
#X text 1679 2109 fourth two octaves;
#X obj 818 591 f;
#X obj 924 568 + 1;
#X obj 301 662 f;
#X obj 407 639 + 1;
#X obj 381 705 % 4;
#X obj 1812 409 == 1;
#X obj 1686 1398 < 3;
#X obj 1654 1237 >= 2;
#X obj 1641 1760 >= 3;
#X obj 1674 1922 < 4;
#X obj 1656 729 >= 1;
#X obj 1689 891 < 2;
#X obj -626 1250 between;
#X obj -678 765 between;
#X obj -660 1782 between;
#X obj -634 2370 between;
#X msg -648 697 -1;
#X msg -464 733 2;
#X msg -541 1171 1;
#X msg -666 2263 5;
#X msg -543 1665 6;
#X msg -452 1142 4;
#X msg -682 1657 3;
#X msg -493 2266 8;
#X obj 561 -165 loadbang;
#X floatatom 1550 131 5 0 0 0 - - -;
#X obj 1538 264 *;
#X floatatom 1485 337 5 0 0 0 - - -;
#X text 1734 -1 time of a semibreve;
#X text 1727 35 /time of a full bar;
#X msg 1652 630 \; array2 0 79 78 79 83 84 83;
#X msg 1652 1134 \; array2 0 78 79 78 79 81 79;
#X msg 1644 1639 \; array2 0 78 76 78 83 84 83;
#X msg 2230 2160 \; arraytimings2 0 0.0625 0.0625 0.75;
#X obj 882 522 bng 15 250 50 0 empty empty empty 17 7 0 10 -262144
-1 -1;
#X obj 882 405 bng 15 250 50 0 empty empty empty 17 7 0 10 -262144
-1 -1;
#X obj 882 432 delay 1000;
#X floatatom 1685 196 5 0 0 0 - - -;
#X obj 898 634 % 6;
#X obj 1652 106 bng 15 250 50 0 empty empty empty 17 7 0 10 -262144
-1 -1;
#X msg 1634 2167 \; array2 0 78 76 78 78 78 78;
#X obj 808 1336 pnote;
#X msg 1518 62 4816;
#X obj 1326 240 tgl 15 0 empty empty empty 17 7 0 10 -262144 -1 -1
301 301;
#X floatatom 1326 262 5 0 0 0 - - -;
#X obj 1027 346 spigot 0;
#X obj 799 952 +;
#X obj 982 1157 pack;
#X obj 1006 886 - 1;
#X obj 1022 947 % 6;
#X obj 975 1064 * 1000;
#X obj 1114 1065 * 1000;
#X obj 402 471 *;
#X floatatom 401 523 7 0 0 0 - - -;
#X msg 471 358 0.1;
#X obj 292 586 metro;
#X floatatom 1038 185 5 0 0 0 - - -;
#X msg 1515 -7 set \$1;
#X obj 1510 -82 random 5000;
#X obj 1514 -120 bng 15 250 50 0 empty empty empty 17 7 0 10 -262144
-1 -1;
#X obj 1514 -280 inlet;
#X obj 1393 -280 inlet;
#X text 1636 -277 Set timings (define \, left \; Random \, right);
#X obj 1234 -276 inlet;
#X obj 1147 -36 bng 15 250 50 0 empty empty empty 17 7 0 10 -262144
-1 -1;
#X text 1008 -276 reset tune;
#X obj 785 -274 inlet;
#X obj 1232 -86 bng 15 250 50 0 empty empty empty 17 7 0 10 -262144
-1 -1;
#X text 561 -280 start/stop;
#X obj -735 -155 loadbang;
#X text 456 103 reset/re-initialize;
#X msg 329 1093 0.04 0 \, 0 240 240;
#X msg 916 1279 0.3 0 \, 0 \$1 \$2;
#X obj 295 1176 pnote;
#X text -98 902 underlying harmony;
#X text -192 1334 trigger for tidying up cabling;
#X text 287 1222 Synthesize and emit note;
#X text 902 480 Note duration;
#X text 1077 1145 pack current and previous note durations;
#X text 800 1379 Synthesize and emit note;
#X text 1883 723 -| | | |-Sans Studios(tm) revolutionary new choose-o-matic
| decision engine (patent pending) | | -|;
#X text 2313 580 main note timing;
#X text 2352 2109 final 3-note flourish;
#X text 2528 126 Overlaying melody timings;
#X obj 1029 1009 tabread noteTimingR;
#X obj 993 821 tabread noteTimingR;
#X obj 1677 130 tabread noteTimingR;
#X obj 2126 130 table noteTimingR;
#X msg 2244 628 \; noteTimingR 0 0.0625 0.0625 0.125 0.0625 0.0625
0.5;
#X connect 1 0 7 0;
#X connect 2 0 31 0;
#X connect 3 0 111 0;
#X connect 3 0 131 0;
#X connect 3 0 132 0;
#X connect 4 0 147 0;
#X connect 4 0 149 0;
#X connect 6 0 128 0;
#X connect 7 0 10 0;
#X connect 8 0 9 0;
#X connect 8 0 30 0;
#X connect 9 0 24 0;
#X connect 10 0 8 0;
#X connect 11 0 93 0;
#X connect 11 0 92 0;
#X connect 11 0 89 0;
#X connect 12 0 5 0;
#X connect 14 0 16 0;
#X connect 17 0 94 0;
#X connect 17 0 97 0;
#X connect 17 0 88 0;
#X connect 18 0 98 0;
#X connect 18 0 96 0;
#X connect 18 0 90 0;
#X connect 19 0 26 0;
#X connect 21 0 95 0;
#X connect 21 0 99 0;
#X connect 21 0 91 0;
#X connect 22 0 25 0;
#X connect 24 0 8 1;
#X connect 30 0 11 0;
#X connect 30 1 17 0;
#X connect 30 2 18 0;
#X connect 30 3 21 0;
#X connect 31 0 4 0;
#X connect 32 0 31 1;
#X connect 33 0 32 0;
#X connect 34 0 32 0;
#X connect 39 0 117 0;
#X connect 40 0 122 1;
#X connect 41 0 40 0;
#X connect 42 0 40 0;
#X connect 43 0 122 0;
#X connect 44 0 47 0;
#X connect 44 0 124 0;
#X connect 44 0 162 0;
#X connect 47 0 50 0;
#X connect 48 0 49 0;
#X connect 48 0 55 0;
#X connect 49 0 62 0;
#X connect 50 0 48 0;
#X connect 51 0 106 0;
#X connect 51 0 164 0;
#X connect 53 0 51 0;
#X connect 54 0 53 1;
#X connect 55 0 60 0;
#X connect 55 0 66 0;
#X connect 55 0 72 0;
#X connect 55 0 81 0;
#X connect 55 0 83 0;
#X connect 55 0 84 0;
#X connect 55 0 86 0;
#X connect 56 0 60 1;
#X connect 57 0 61 1;
#X connect 58 0 107 0;
#X connect 60 0 61 0;
#X connect 60 0 87 0;
#X connect 61 0 58 0;
#X connect 62 0 48 1;
#X connect 63 0 66 1;
#X connect 64 0 67 1;
#X connect 65 0 108 0;
#X connect 66 0 67 0;
#X connect 66 0 82 0;
#X connect 67 0 65 0;
#X connect 69 0 72 1;
#X connect 70 0 73 1;
#X connect 71 0 116 0;
#X connect 71 0 109 0;
#X connect 72 0 73 0;
#X connect 72 0 85 0;
#X connect 73 0 71 0;
#X connect 74 0 48 0;
#X connect 74 0 8 0;
#X connect 74 0 78 0;
#X connect 74 0 76 0;
#X connect 74 0 130 0;
#X connect 76 0 77 0;
#X connect 76 0 44 0;
#X connect 76 0 43 0;
#X connect 76 0 161 0;
#X connect 77 0 114 0;
#X connect 78 0 79 0;
#X connect 78 0 2 0;
#X connect 78 0 1 0;
#X connect 79 0 80 0;
#X connect 80 0 78 1;
#X connect 81 0 54 0;
#X connect 81 0 53 0;
#X connect 82 0 64 0;
#X connect 83 0 63 0;
#X connect 84 0 69 0;
#X connect 85 0 70 0;
#X connect 86 0 56 0;
#X connect 87 0 57 0;
#X connect 88 3 14 0;
#X connect 89 3 12 0;
#X connect 90 3 19 0;
#X connect 91 3 22 0;
#X connect 92 0 89 1;
#X connect 93 0 89 2;
#X connect 94 0 88 1;
#X connect 95 0 91 1;
#X connect 96 0 90 2;
#X connect 97 0 88 2;
#X connect 98 0 90 1;
#X connect 99 0 91 2;
#X connect 100 0 74 0;
#X connect 100 0 36 0;
#X connect 100 0 27 0;
#X connect 101 0 102 0;
#X connect 101 0 128 1;
#X connect 102 0 103 0;
#X connect 103 0 112 1;
#X connect 103 0 119 0;
#X connect 110 0 76 0;
#X connect 111 0 112 0;
#X connect 112 0 110 0;
#X connect 113 0 102 1;
#X connect 113 0 115 0;
#X connect 114 0 76 1;
#X connect 115 0 118 0;
#X connect 118 0 101 0;
#X connect 118 0 130 0;
#X connect 119 0 120 0;
#X connect 120 0 121 0;
#X connect 121 0 111 0;
#X connect 122 0 39 0;
#X connect 123 0 148 0;
#X connect 124 0 125 0;
#X connect 125 0 160 0;
#X connect 126 0 123 0;
#X connect 127 0 123 1;
#X connect 128 0 129 0;
#X connect 129 0 131 1;
#X connect 130 0 6 0;
#X connect 131 0 78 0;
#X connect 132 0 121 1;
#X connect 133 0 118 0;
#X connect 134 0 133 0;
#X connect 135 0 134 0;
#X connect 136 0 135 0;
#X connect 137 0 133 0;
#X connect 139 0 140 0;
#X connect 140 0 74 0;
#X connect 142 0 143 0;
#X connect 143 0 3 0;
#X connect 145 0 46 0;
#X connect 145 0 45 0;
#X connect 147 0 149 1;
#X connect 148 0 117 1;
#X connect 160 0 127 0;
#X connect 161 0 126 0;
#X connect 162 0 113 0;
