#N canvas 368 18 1401 1003 10;
#X obj 414 274 inlet;
#X obj 766 606 *~;
#X obj 782 568 vline~;
#X obj 234 401 osc~;
#X obj 766 680 dac~;
#X obj 955 291 inlet;
#X text 306 272 frequency to play;
#X obj 854 689 snapshot~;
#X floatatom 854 712 5 0 0 0 - - -;
#X obj 864 662 metro 100;
#X obj 864 629 loadbang;
#X text 950 276 volume data;
#X obj 235 363 * 1;
#X obj 271 364 * 2;
#X obj 325 364 * 3;
#X obj 377 365 * 4;
#X obj 418 365 * 5;
#X obj 461 366 * 6;
#X obj 515 364 * 7;
#X obj 551 365 * 8;
#X obj 269 399 osc~;
#X obj 323 406 osc~;
#X obj 375 403 osc~;
#X obj 421 404 osc~;
#X obj 464 402 osc~;
#X obj 517 402 osc~;
#X obj 551 401 osc~;
#X text 923 686 connect vline to here to see what's happening;
#X obj 672 444 / 100;
#X obj 694 352 bng 15 250 50 0 empty empty empty 17 7 0 10 -262144
-1 -1;
#X floatatom 414 301 5 0 0 0 - - -;
#X obj 237 447 *~ 1;
#X obj 274 447 *~ 0.7;
#X obj 325 447 *~ 0.5;
#X obj 372 446 *~ 0.4;
#X obj 558 447 *~ 0.1;
#X obj 515 447 *~ 0.2;
#X obj 463 447 *~ 0.3;
#X obj 420 446 *~ 0.3;
#X obj 639 548 *~ 3;
#X obj 711 397 random 1000;
#X obj 601 400 osc~;
#X obj 601 364 * 10;
#X obj 675 420 random;
#X obj 609 446 *~ 0.01;
#X text 717 413 Double randomisation! On the volume! Oh the imposibilities!!!111one!one!
;
#X text 827 568 An envelopment of noteworthiness;
#X connect 0 0 30 0;
#X connect 1 0 4 0;
#X connect 1 0 4 1;
#X connect 2 0 1 1;
#X connect 2 0 7 0;
#X connect 3 0 31 0;
#X connect 5 0 2 0;
#X connect 7 0 8 0;
#X connect 9 0 7 0;
#X connect 10 0 9 0;
#X connect 12 0 3 0;
#X connect 13 0 20 0;
#X connect 14 0 21 0;
#X connect 15 0 22 0;
#X connect 16 0 23 0;
#X connect 17 0 24 0;
#X connect 18 0 25 0;
#X connect 19 0 26 0;
#X connect 20 0 32 0;
#X connect 21 0 33 0;
#X connect 22 0 34 0;
#X connect 23 0 38 0;
#X connect 24 0 37 0;
#X connect 25 0 36 0;
#X connect 26 0 35 0;
#X connect 28 0 39 1;
#X connect 29 0 40 0;
#X connect 29 0 43 0;
#X connect 30 0 12 0;
#X connect 30 0 13 0;
#X connect 30 0 14 0;
#X connect 30 0 15 0;
#X connect 30 0 16 0;
#X connect 30 0 17 0;
#X connect 30 0 18 0;
#X connect 30 0 19 0;
#X connect 30 0 29 0;
#X connect 30 0 42 0;
#X connect 31 0 39 0;
#X connect 32 0 39 0;
#X connect 33 0 39 0;
#X connect 34 0 39 0;
#X connect 35 0 39 0;
#X connect 36 0 39 0;
#X connect 37 0 39 0;
#X connect 38 0 39 0;
#X connect 39 0 1 0;
#X connect 40 0 43 1;
#X connect 41 0 44 0;
#X connect 42 0 41 0;
#X connect 43 0 28 0;
#X connect 44 0 39 0;
